<?xml version="1.0" standalone="no"?>
<svg viewBox="0 0 200 200" xmlns="http://www.w3.org/2000/svg">
  <path fill="#F5252F" d="M28.5,-42.7C40.9,-42.2,57.6,-42.6,67,-35.6C76.4,-28.6,78.4,-14.3,70.5,-4.6C62.6,5.2,44.7,10.3,37.6,21.1C30.4,31.9,33.9,48.3,29.4,57C24.9,65.7,12.5,66.8,1.6,64C-9.2,61.2,-18.4,54.5,-31.2,50.6C-44,46.7,-60.3,45.4,-58.7,37.5C-57.2,29.5,-37.8,14.7,-32.9,2.8C-28.1,-9.1,-37.8,-18.3,-40.4,-28.2C-43.1,-38.1,-38.7,-48.8,-30.8,-51.9C-22.9,-55,-11.4,-50.6,-1.7,-47.6C8.1,-44.7,16.1,-43.3,28.5,-42.7Z" transform="translate(100 100)" />
</svg>
